<svg width="13" height="27" viewBox="0 0 13 27" fill="none" xmlns="http://www.w3.org/2000/svg">
<path d="M0.594 14.978C0.594 13.97 0.792 13.076 1.188 12.296C1.596 11.516 2.142 10.916 2.826 10.496C3.522 10.076 4.296 9.866 5.148 9.866C5.892 9.866 6.54 10.016 7.092 10.316C7.656 10.616 8.106 10.994 8.442 11.45V10.028H10.98V20H8.442V18.542C8.118 19.01 7.668 19.4 7.092 19.712C6.528 20.012 5.874 20.162 5.13 20.162C4.29 20.162 3.522 19.946 2.826 19.514C2.142 19.082 1.596 18.476 1.188 17.696C0.792 16.904 0.594 15.998 0.594 14.978ZM8.442 15.014C8.442 14.402 8.322 13.88 8.082 13.448C7.842 13.004 7.518 12.668 7.11 12.44C6.702 12.2 6.264 12.08 5.796 12.08C5.328 12.08 4.896 12.194 4.5 12.422C4.104 12.65 3.78 12.986 3.528 13.43C3.288 13.862 3.168 14.378 3.168 14.978C3.168 15.578 3.288 16.106 3.528 16.562C3.78 17.006 4.104 17.348 4.5 17.588C4.908 17.828 5.34 17.948 5.796 17.948C6.264 17.948 6.702 17.834 7.11 17.606C7.518 17.366 7.842 17.03 8.082 16.598C8.322 16.154 8.442 15.626 8.442 15.014Z" fill="black"/>
</svg>
