<svg width="16" height="16" viewBox="0 0 16 16" fill="none" xmlns="http://www.w3.org/2000/svg">
<path d="M10.5199 1.33333H5.47992C2.95992 1.33333 2.33325 2.00666 2.33325 4.69333V12.2C2.33325 13.9733 3.30659 14.3933 4.48659 13.1267L4.49325 13.12C5.03992 12.54 5.87325 12.5867 6.34659 13.22L7.01992 14.12C7.55992 14.8333 8.43325 14.8333 8.97325 14.12L9.64659 13.22C10.1266 12.58 10.9599 12.5333 11.5066 13.12C12.6933 14.3867 13.6599 13.9667 13.6599 12.1933V4.69333C13.6666 2.00666 13.0399 1.33333 10.5199 1.33333ZM5.18659 8C4.81992 8 4.51992 7.7 4.51992 7.33333C4.51992 6.96666 4.81992 6.66666 5.18659 6.66666C5.55325 6.66666 5.85325 6.96666 5.85325 7.33333C5.85325 7.7 5.55325 8 5.18659 8ZM5.18659 5.33333C4.81992 5.33333 4.51992 5.03333 4.51992 4.66666C4.51992 4.29999 4.81992 3.99999 5.18659 3.99999C5.55325 3.99999 5.85325 4.29999 5.85325 4.66666C5.85325 5.03333 5.55325 5.33333 5.18659 5.33333ZM10.8199 7.83333H7.15325C6.87992 7.83333 6.65325 7.60666 6.65325 7.33333C6.65325 7.06 6.87992 6.83333 7.15325 6.83333H10.8199C11.0933 6.83333 11.3199 7.06 11.3199 7.33333C11.3199 7.60666 11.0933 7.83333 10.8199 7.83333ZM10.8199 5.16666H7.15325C6.87992 5.16666 6.65325 4.94 6.65325 4.66666C6.65325 4.39333 6.87992 4.16666 7.15325 4.16666H10.8199C11.0933 4.16666 11.3199 4.39333 11.3199 4.66666C11.3199 4.94 11.0933 5.16666 10.8199 5.16666Z" fill="#1D3557"/>
</svg>
