<svg width="16" height="16" viewBox="0 0 16 16" fill="#1D3557" xmlns="http://www.w3.org/2000/svg">
<path d="M12.4466 1.33334H11.18C9.72663 1.33334 8.95996 2.10001 8.95996 3.55334V4.82001C8.95996 6.27334 9.72663 7.04001 11.18 7.04001H12.4466C13.9 7.04001 14.6666 6.27334 14.6666 4.82001V3.55334C14.6666 2.10001 13.9 1.33334 12.4466 1.33334Z" fill="#1D3557"/>
<path d="M4.82658 8.95331H3.55992C2.09992 8.95331 1.33325 9.71997 1.33325 11.1733V12.44C1.33325 13.9 2.09992 14.6666 3.55325 14.6666H4.81992C6.27325 14.6666 7.03992 13.9 7.03992 12.4466V11.18C7.04659 9.71997 6.27992 8.95331 4.82658 8.95331Z" fill="#1D3557"/>
<path d="M4.19325 7.05334C5.77279 7.05334 7.05325 5.77288 7.05325 4.19334C7.05325 2.61381 5.77279 1.33334 4.19325 1.33334C2.61372 1.33334 1.33325 2.61381 1.33325 4.19334C1.33325 5.77288 2.61372 7.05334 4.19325 7.05334Z" fill="#1D3557"/>
<path d="M11.8068 14.6667C13.3863 14.6667 14.6668 13.3862 14.6668 11.8067C14.6668 10.2271 13.3863 8.94666 11.8068 8.94666C10.2272 8.94666 8.94678 10.2271 8.94678 11.8067C8.94678 13.3862 10.2272 14.6667 11.8068 14.6667Z" fill="#1D3557"/>
</svg>
