<svg width="100" height="18" viewBox="0 0 100 18" fill="none" xmlns="http://www.w3.org/2000/svg">
<path d="M11.928 13.808L12.8731 13.4811L12.6403 12.808H11.928V13.808ZM5.256 13.808V12.808H4.54374L4.31093 13.4811L5.256 13.808ZM4.152 17V18H4.86426L5.09707 17.3269L4.152 17ZM0.624 17L-0.317162 16.662L-0.797601 18H0.624V17ZM6.648 0.223999V-0.776001H5.94457L5.70684 -0.113958L6.648 0.223999ZM10.56 0.223999L11.5012 -0.113958L11.2634 -0.776001H10.56V0.223999ZM16.584 17V18H18.0056L17.5252 16.662L16.584 17ZM13.032 17L12.0869 17.3269L12.3197 18H13.032V17ZM11.016 11.12V12.12H12.42L11.9611 10.7931L11.016 11.12ZM8.592 4.112L9.53706 3.78511L8.592 1.05285L7.64694 3.78511L8.592 4.112ZM6.168 11.12L5.22294 10.7931L4.76398 12.12H6.168V11.12ZM11.928 12.808H5.256V14.808H11.928V12.808ZM4.31093 13.4811L3.20693 16.6731L5.09707 17.3269L6.20107 14.1349L4.31093 13.4811ZM4.152 16H0.624V18H4.152V16ZM1.56516 17.338L7.58916 0.561955L5.70684 -0.113958L-0.317162 16.662L1.56516 17.338ZM6.648 1.224H10.56V-0.776001H6.648V1.224ZM9.61884 0.561955L15.6428 17.338L17.5252 16.662L11.5012 -0.113958L9.61884 0.561955ZM16.584 16H13.032V18H16.584V16ZM13.9771 16.6731L12.8731 13.4811L10.9829 14.1349L12.0869 17.3269L13.9771 16.6731ZM11.9611 10.7931L9.53706 3.78511L7.64694 4.43889L10.0709 11.4469L11.9611 10.7931ZM7.64694 3.78511L5.22294 10.7931L7.11306 11.4469L9.53706 4.43889L7.64694 3.78511ZM6.168 12.12H11.016V10.12H6.168V12.12ZM24.9557 16.64L24.5356 17.5475L24.5425 17.5507L24.5495 17.5538L24.9557 16.64ZM22.8917 15.032L22.0871 15.6259L22.0916 15.632L22.0963 15.638L22.8917 15.032ZM22.0757 12.8V11.8H21.0151L21.0774 12.8587L22.0757 12.8ZM25.4597 12.8L26.452 12.676L26.3425 11.8H25.4597V12.8ZM26.2037 14.072L25.5897 14.8614L25.5967 14.8667L25.6037 14.872L26.2037 14.072ZM29.3477 14.192L28.7766 13.3711L28.768 13.3771L28.7595 13.3833L29.3477 14.192ZM29.2277 12.248L28.7674 13.1358L28.7868 13.1458L28.8066 13.155L29.2277 12.248ZM27.1397 11.528L27.3973 10.5618L27.3861 10.5588L27.3748 10.556L27.1397 11.528ZM24.6917 10.784L24.3121 11.7092L24.3203 11.7125L24.6917 10.784ZM23.0597 9.608L22.2972 10.255L22.3028 10.2616L22.3085 10.2681L23.0597 9.608ZM23.0117 5.456L22.1965 4.87679L22.1914 4.88401L22.1864 4.89132L23.0117 5.456ZM24.8357 4.016L24.4329 3.10066L24.4261 3.10373L24.8357 4.016ZM31.4357 4.688L30.7891 5.45093L30.7968 5.45729L31.4357 4.688ZM32.9957 7.88V8.88H34.0697L33.9931 7.80875L32.9957 7.88ZM29.7797 7.88L28.7838 7.97054L28.8665 8.88H29.7797V7.88ZM29.1077 6.632L28.4675 7.40022L28.4847 7.41459L28.5026 7.42816L29.1077 6.632ZM26.1317 6.488L25.577 5.65595L25.5675 5.66225L25.5582 5.66877L26.1317 6.488ZM26.3237 8.456L25.8515 9.33748L25.8639 9.34413L25.8765 9.35043L26.3237 8.456ZM28.4117 9.152L28.1653 10.1212L28.1692 10.1221L28.4117 9.152ZM32.3957 11.096L31.6238 11.7317L31.6339 11.7441L31.6445 11.7561L32.3957 11.096ZM33.1157 13.208H34.1157V13.1989L34.1155 13.1898L33.1157 13.208ZM32.4677 15.272L31.6525 14.6928L31.6474 14.7L31.6424 14.7073L32.4677 15.272ZM30.6437 16.712L31.0376 17.6312L31.0464 17.6273L30.6437 16.712ZM27.8837 16.216C26.9146 16.216 26.0801 16.0454 25.3618 15.7262L24.5495 17.5538C25.5593 18.0026 26.6767 18.216 27.8837 18.216V16.216ZM25.3758 15.7325C24.6406 15.3922 24.0885 14.9527 23.6871 14.426L22.0963 15.638C22.7189 16.4553 23.5428 17.0878 24.5356 17.5475L25.3758 15.7325ZM23.6963 14.4381C23.3126 13.9184 23.1103 13.3595 23.074 12.7413L21.0774 12.8587C21.137 13.8725 21.4787 14.8016 22.0871 15.6259L23.6963 14.4381ZM22.0757 13.8H25.4597V11.8H22.0757V13.8ZM24.4674 12.924C24.5665 13.7164 24.9625 14.3735 25.5897 14.8614L26.8176 13.2826C26.5809 13.0985 26.4809 12.9076 26.452 12.676L24.4674 12.924ZM25.6037 14.872C26.2532 15.3591 27.0257 15.576 27.8597 15.576V13.576C27.3816 13.576 27.0502 13.4569 26.8037 13.272L25.6037 14.872ZM27.8597 15.576C28.6161 15.576 29.3495 15.4272 29.9359 15.0007L28.7595 13.3833C28.6418 13.4688 28.3832 13.576 27.8597 13.576V15.576ZM29.9188 15.0129C30.5177 14.5962 30.8997 13.9788 30.8997 13.208H28.8997C28.8997 13.2479 28.8924 13.2597 28.8895 13.2647C28.8844 13.2739 28.8601 13.313 28.7766 13.3711L29.9188 15.0129ZM30.8997 13.208C30.8997 12.8096 30.793 12.4163 30.5509 12.0705C30.3145 11.7328 29.991 11.4998 29.6488 11.341L28.8066 13.155C28.9124 13.2042 28.9249 13.2352 28.9125 13.2175C28.9066 13.2092 28.9018 13.1989 28.8993 13.1905C28.8971 13.183 28.8997 13.187 28.8997 13.208H30.8997ZM29.688 11.3602C29.1546 11.0837 28.3708 10.8213 27.3973 10.5618L26.882 12.4942C27.8286 12.7467 28.4368 12.9643 28.7674 13.1358L29.688 11.3602ZM27.3748 10.556C26.4094 10.3225 25.6432 10.0876 25.0631 9.85552L24.3203 11.7125C25.0202 11.9924 25.8859 12.2535 26.9045 12.5L27.3748 10.556ZM25.0712 9.85883C24.596 9.66384 24.1775 9.3651 23.8109 8.94789L22.3085 10.2681C22.8699 10.9069 23.5394 11.3922 24.3121 11.7092L25.0712 9.85883ZM23.8222 8.96102C23.5679 8.66136 23.3877 8.20202 23.3877 7.472H21.3877C21.3877 8.53398 21.6554 9.49864 22.2972 10.255L23.8222 8.96102ZM23.3877 7.472C23.3877 6.93773 23.5347 6.46253 23.837 6.02068L22.1864 4.89132C21.6567 5.66547 21.3877 6.53427 21.3877 7.472H23.3877ZM23.8269 6.03521C24.1409 5.59325 24.5986 5.21861 25.2453 4.92827L24.4261 3.10373C23.5048 3.51739 22.7465 4.10274 22.1965 4.87679L23.8269 6.03521ZM25.2384 4.93131C25.8862 4.6463 26.6797 4.488 27.6437 4.488V2.488C26.4636 2.488 25.3852 2.6817 24.4329 3.10069L25.2384 4.93131ZM27.6437 4.488C29.0587 4.488 30.0716 4.84277 30.7892 5.4509L32.0822 3.9251C30.9118 2.93323 29.3966 2.488 27.6437 2.488V4.488ZM30.7968 5.45729C31.5094 6.04915 31.9195 6.84957 31.9982 7.95125L33.9931 7.80875C33.8798 6.22243 33.2499 4.89485 32.0746 3.91871L30.7968 5.45729ZM32.9957 6.88H29.7797V8.88H32.9957V6.88ZM30.7756 7.78946C30.7037 6.99925 30.3499 6.32005 29.7128 5.83584L28.5026 7.42816C28.6655 7.55195 28.7596 7.70475 28.7838 7.97054L30.7756 7.78946ZM29.7479 5.86378C29.1345 5.35266 28.3637 5.152 27.5477 5.152V7.152C28.0437 7.152 28.3128 7.27134 28.4675 7.40022L29.7479 5.86378ZM27.5477 5.152C26.8358 5.152 26.1408 5.28006 25.577 5.65595L26.6864 7.32005C26.7946 7.24794 27.0436 7.152 27.5477 7.152V5.152ZM25.5582 5.66877C24.9633 6.0852 24.6517 6.70704 24.6517 7.424H26.6517C26.6517 7.39076 26.655 7.37027 26.6574 7.35975C26.6586 7.35442 26.6596 7.35105 26.6603 7.34925C26.6609 7.34746 26.6614 7.3466 26.6615 7.34632C26.6616 7.34604 26.6619 7.34562 26.6624 7.34486C26.6629 7.34408 26.6642 7.34234 26.6666 7.33962C26.6713 7.33438 26.6826 7.32299 26.7051 7.30723L25.5582 5.66877ZM24.6517 7.424C24.6517 7.82331 24.7543 8.21453 24.9817 8.56367C25.2048 8.90635 25.5141 9.15673 25.8515 9.33748L26.7959 7.57452C26.6853 7.51527 26.6586 7.47365 26.6577 7.47233C26.6568 7.47094 26.6566 7.47068 26.6559 7.46835C26.6551 7.46535 26.6517 7.45207 26.6517 7.424H24.6517ZM25.8765 9.35043C26.4233 9.62386 27.204 9.87676 28.1653 10.1212L28.6581 8.18283C27.7314 7.94724 27.12 7.73614 26.7709 7.56157L25.8765 9.35043ZM28.1692 10.1221C29.1019 10.3553 29.844 10.5897 30.4081 10.8212L31.1672 8.97083C30.4834 8.69028 29.6415 8.42867 28.6542 8.18186L28.1692 10.1221ZM30.4081 10.8212C30.8725 11.0117 31.2758 11.3092 31.6238 11.7317L33.1676 10.4603C32.6196 9.79482 31.9509 9.29231 31.1672 8.97083L30.4081 10.8212ZM31.6445 11.7561C31.916 12.065 32.103 12.5214 32.1159 13.2262L34.1155 13.1898C34.0963 12.1346 33.8034 11.183 33.1469 10.4359L31.6445 11.7561ZM32.1157 13.208C32.1157 13.775 31.9605 14.2593 31.6525 14.6928L33.2829 15.8512C33.8389 15.0687 34.1157 14.177 34.1157 13.208H32.1157ZM31.6424 14.7073C31.35 15.1346 30.9023 15.5057 30.2409 15.7967L31.0464 17.6273C31.985 17.2143 32.7534 16.6254 33.293 15.8367L31.6424 14.7073ZM30.2498 15.7929C29.6161 16.0644 28.8355 16.216 27.8837 16.216V18.216C29.0438 18.216 30.1033 18.0316 31.0376 17.6311L30.2498 15.7929ZM41.9938 16.64L41.5737 17.5475L41.5807 17.5507L41.5877 17.5538L41.9938 16.64ZM39.9298 15.032L39.1252 15.6259L39.1298 15.632L39.1344 15.638L39.9298 15.032ZM39.1138 12.8V11.8H38.0533L38.1155 12.8587L39.1138 12.8ZM42.4978 12.8L43.4901 12.676L43.3806 11.8H42.4978V12.8ZM43.2418 14.072L42.6279 14.8614L42.6348 14.8667L42.6418 14.872L43.2418 14.072ZM46.3858 14.192L45.8147 13.3711L45.8061 13.3771L45.7976 13.3833L46.3858 14.192ZM46.2658 12.248L45.8055 13.1358L45.8249 13.1458L45.8447 13.155L46.2658 12.248ZM44.1778 11.528L44.4355 10.5618L44.4243 10.5588L44.413 10.556L44.1778 11.528ZM41.7298 10.784L41.3502 11.7092L41.3584 11.7125L41.7298 10.784ZM40.0978 9.608L39.3353 10.255L39.3409 10.2616L39.3466 10.2681L40.0978 9.608ZM40.0498 5.456L39.2346 4.87679L39.2295 4.88401L39.2245 4.89132L40.0498 5.456ZM41.8738 4.016L41.4711 3.10066L41.4642 3.10373L41.8738 4.016ZM48.4738 4.688L47.8273 5.45093L47.8349 5.45729L48.4738 4.688ZM50.0338 7.88V8.88H51.1078L51.0313 7.80875L50.0338 7.88ZM46.8178 7.88L45.8219 7.97054L45.9046 8.88H46.8178V7.88ZM46.1458 6.632L45.5056 7.40022L45.5229 7.41459L45.5407 7.42816L46.1458 6.632ZM43.1698 6.488L42.6151 5.65595L42.6057 5.66225L42.5963 5.66877L43.1698 6.488ZM43.3618 8.456L42.8896 9.33748L42.902 9.34413L42.9146 9.35043L43.3618 8.456ZM45.4498 9.152L45.2034 10.1212L45.2073 10.1221L45.4498 9.152ZM49.4338 11.096L48.6619 11.7317L48.6721 11.7441L48.6826 11.7561L49.4338 11.096ZM50.1538 13.208H51.1538V13.1989L51.1536 13.1898L50.1538 13.208ZM49.5058 15.272L48.6906 14.6928L48.6855 14.7L48.6805 14.7073L49.5058 15.272ZM47.6818 16.712L48.0757 17.6312L48.0845 17.6273L47.6818 16.712ZM44.9218 16.216C43.9528 16.216 43.1182 16.0454 42.3999 15.7262L41.5877 17.5538C42.5974 18.0026 43.7149 18.216 44.9218 18.216V16.216ZM42.4139 15.7325C41.6787 15.3922 41.1266 14.9527 40.7252 14.426L39.1344 15.638C39.757 16.4553 40.5809 17.0878 41.5737 17.5475L42.4139 15.7325ZM40.7344 14.4381C40.3508 13.9184 40.1484 13.3595 40.1121 12.7413L38.1155 12.8587C38.1752 13.8725 38.5169 14.8016 39.1252 15.6259L40.7344 14.4381ZM39.1138 13.8H42.4978V11.8H39.1138V13.8ZM41.5055 12.924C41.6046 13.7164 42.0006 14.3735 42.6279 14.8614L43.8558 13.2826C43.619 13.0985 43.519 12.9076 43.4901 12.676L41.5055 12.924ZM42.6418 14.872C43.2913 15.3591 44.0639 15.576 44.8978 15.576V13.576C44.4198 13.576 44.0883 13.4569 43.8418 13.272L42.6418 14.872ZM44.8978 15.576C45.6543 15.576 46.3876 15.4272 46.974 15.0007L45.7976 13.3833C45.68 13.4688 45.4214 13.576 44.8978 13.576V15.576ZM46.9569 15.0129C47.5558 14.5962 47.9378 13.9788 47.9378 13.208H45.9378C45.9378 13.2479 45.9305 13.2597 45.9277 13.2647C45.9225 13.2739 45.8982 13.313 45.8147 13.3711L46.9569 15.0129ZM47.9378 13.208C47.9378 12.8096 47.8311 12.4163 47.589 12.0705C47.3526 11.7328 47.0291 11.4998 46.6869 11.341L45.8447 13.155C45.9505 13.2042 45.963 13.2352 45.9506 13.2175C45.9448 13.2092 45.9399 13.1989 45.9374 13.1905C45.9352 13.183 45.9378 13.187 45.9378 13.208H47.9378ZM46.7261 11.3602C46.1927 11.0837 45.4089 10.8213 44.4355 10.5618L43.9201 12.4942C44.8667 12.7467 45.4749 12.9643 45.8055 13.1358L46.7261 11.3602ZM44.413 10.556C43.4476 10.3225 42.6813 10.0876 42.1012 9.85552L41.3584 11.7125C42.0583 11.9924 42.9241 12.2535 43.9427 12.5L44.413 10.556ZM42.1094 9.85883C41.6341 9.66384 41.2156 9.3651 40.849 8.94789L39.3466 10.2681C39.908 10.9069 40.5775 11.3922 41.3503 11.7092L42.1094 9.85883ZM40.8603 8.96102C40.6061 8.66136 40.4258 8.20202 40.4258 7.472H38.4258C38.4258 8.53398 38.6936 9.49864 39.3353 10.255L40.8603 8.96102ZM40.4258 7.472C40.4258 6.93773 40.5728 6.46253 40.8751 6.02068L39.2245 4.89132C38.6948 5.66547 38.4258 6.53427 38.4258 7.472H40.4258ZM40.865 6.03521C41.179 5.59325 41.6367 5.21861 42.2834 4.92827L41.4642 3.10373C40.5429 3.51739 39.7846 4.10274 39.2346 4.87679L40.865 6.03521ZM42.2766 4.93131C42.9243 4.6463 43.7179 4.488 44.6818 4.488V2.488C43.5018 2.488 42.4233 2.6817 41.4711 3.10069L42.2766 4.93131ZM44.6818 4.488C46.0969 4.488 47.1097 4.84277 47.8273 5.4509L49.1203 3.9251C47.9499 2.93323 46.4347 2.488 44.6818 2.488V4.488ZM47.8349 5.45729C48.5476 6.04915 48.9577 6.84957 49.0364 7.95125L51.0313 7.80875C50.918 6.22243 50.2881 4.89485 49.1127 3.91871L47.8349 5.45729ZM50.0338 6.88H46.8178V8.88H50.0338V6.88ZM47.8137 7.78946C47.7419 6.99925 47.388 6.32005 46.7509 5.83584L45.5407 7.42816C45.7036 7.55195 45.7978 7.70475 45.8219 7.97054L47.8137 7.78946ZM46.786 5.86378C46.1727 5.35266 45.4018 5.152 44.5858 5.152V7.152C45.0818 7.152 45.351 7.27134 45.5056 7.40022L46.786 5.86378ZM44.5858 5.152C43.8739 5.152 43.1789 5.28006 42.6151 5.65595L43.7245 7.32005C43.8327 7.24794 44.0817 7.152 44.5858 7.152V5.152ZM42.5963 5.66877C42.0015 6.0852 41.6898 6.70704 41.6898 7.424H43.6898C43.6898 7.39076 43.6931 7.37027 43.6955 7.35975C43.6967 7.35442 43.6978 7.35105 43.6984 7.34925C43.6991 7.34746 43.6995 7.3466 43.6996 7.34632C43.6998 7.34604 43.7 7.34562 43.7005 7.34486C43.7011 7.34408 43.7023 7.34234 43.7048 7.33962C43.7095 7.33438 43.7208 7.32299 43.7433 7.30723L42.5963 5.66877ZM41.6898 7.424C41.6898 7.82331 41.7925 8.21453 42.0198 8.56367C42.2429 8.90635 42.5522 9.15673 42.8896 9.33748L43.834 7.57452C43.7234 7.51527 43.6967 7.47365 43.6958 7.47233C43.6949 7.47094 43.6947 7.47068 43.6941 7.46835C43.6932 7.46535 43.6898 7.45207 43.6898 7.424H41.6898ZM42.9146 9.35043C43.4615 9.62386 44.2421 9.87676 45.2034 10.1212L45.6962 8.18283C44.7695 7.94724 44.1582 7.73614 43.809 7.56157L42.9146 9.35043ZM45.2073 10.1221C46.14 10.3553 46.8821 10.5897 47.4463 10.8212L48.2054 8.97083C47.5215 8.69028 46.6796 8.42867 45.6923 8.18186L45.2073 10.1221ZM47.4463 10.8212C47.9106 11.0117 48.3139 11.3092 48.6619 11.7317L50.2057 10.4603C49.6577 9.79482 48.989 9.29231 48.2054 8.97083L47.4463 10.8212ZM48.6826 11.7561C48.9541 12.065 49.1412 12.5214 49.154 13.2262L51.1536 13.1898C51.1345 12.1346 50.8415 11.183 50.185 10.4359L48.6826 11.7561ZM49.1538 13.208C49.1538 13.775 48.9986 14.2593 48.6906 14.6928L50.321 15.8512C50.877 15.0687 51.1538 14.177 51.1538 13.208H49.1538ZM48.6805 14.7073C48.3881 15.1346 47.9405 15.5057 47.2791 15.7967L48.0845 17.6273C49.0232 17.2143 49.7915 16.6254 50.3311 15.8367L48.6805 14.7073ZM47.2879 15.7929C46.6542 16.0644 45.8737 16.216 44.9218 16.216V18.216C46.082 18.216 47.1414 18.0316 48.0757 17.6311L47.2879 15.7929ZM69.1359 11.36V12.36H69.9831L70.1223 11.5244L69.1359 11.36ZM59.4159 11.36V10.36H58.3291L58.4194 11.443L59.4159 11.36ZM60.4239 13.616L59.7473 14.3523L60.4239 13.616ZM65.2719 12.824V11.824H64.6498L64.3748 12.3822L65.2719 12.824ZM68.8959 12.824L69.8538 13.1113L70.24 11.824H68.8959V12.824ZM66.6879 15.992L67.288 16.792L67.2954 16.7864L66.6879 15.992ZM59.2239 16.376L58.7278 17.2442L58.7359 17.2489L58.7441 17.2534L59.2239 16.376ZM56.8479 13.952L55.9674 14.4261L55.9731 14.4365L56.8479 13.952ZM56.8479 6.728L55.9675 6.2539L56.8479 6.728ZM59.1999 4.328L59.6856 5.20216V5.20216L59.1999 4.328ZM66.0639 4.304L65.5831 5.18083L65.589 5.18402L66.0639 4.304ZM68.3919 6.632L67.5119 7.10693L67.5164 7.11531L67.5211 7.12359L68.3919 6.632ZM65.7519 9.104V10.104H66.7706L66.7518 9.08548L65.7519 9.104ZM64.8159 7.04L64.1603 7.79503L64.166 7.80002L64.1718 7.80491L64.8159 7.04ZM60.4719 7.016L61.135 7.76459L61.1363 7.76341L60.4719 7.016ZM59.4399 9.104L58.45 8.96258L58.2869 10.104H59.4399V9.104ZM68.2319 10.064C68.2319 10.5011 68.2027 10.8767 68.1495 11.1956L70.1223 11.5244C70.1972 11.0753 70.2319 10.5869 70.2319 10.064H68.2319ZM69.1359 10.36H59.4159V12.36H69.1359V10.36ZM58.4194 11.443C58.5159 12.6008 58.935 13.6059 59.7473 14.3523L61.1006 12.8797C60.7288 12.5381 60.476 12.0392 60.4125 11.277L58.4194 11.443ZM59.7473 14.3523C60.5384 15.0792 61.5137 15.432 62.6079 15.432V13.432C61.9741 13.432 61.4935 13.2408 61.1006 12.8797L59.7473 14.3523ZM62.6079 15.432C63.3769 15.432 64.0977 15.2658 64.7267 14.8861C65.3583 14.5049 65.8336 13.9468 66.169 13.2659L64.3748 12.3822C64.1822 12.7732 63.9496 13.0191 63.6932 13.1739C63.4341 13.3302 63.087 13.432 62.6079 13.432V15.432ZM65.2719 13.824H68.8959V11.824H65.2719V13.824ZM67.9381 12.5367C67.6162 13.6097 67.0057 14.4901 66.0805 15.1976L67.2954 16.7864C68.5462 15.8299 69.4077 14.5983 69.8538 13.1113L67.9381 12.5367ZM66.0879 15.192C65.2005 15.8576 64.0846 16.216 62.6799 16.216V18.216C64.4433 18.216 65.9994 17.7584 67.2879 16.792L66.0879 15.192ZM62.6799 16.216C61.551 16.216 60.5667 15.9706 59.7038 15.4986L58.7441 17.2534C59.9292 17.9014 61.2488 18.216 62.6799 18.216V16.216ZM59.7201 15.5078C58.875 15.0249 58.2123 14.3514 57.7227 13.4675L55.9731 14.4365C56.6356 15.6326 57.5569 16.5751 58.7278 17.2442L59.7201 15.5078ZM57.7284 13.4779C57.258 12.6043 57.0079 11.5718 57.0079 10.352H55.0079C55.0079 11.8522 55.3179 13.2197 55.9675 14.4261L57.7284 13.4779ZM57.0079 10.352C57.0079 9.11408 57.2589 8.07403 57.7284 7.2021L55.9675 6.2539C55.317 7.46197 55.0079 8.83792 55.0079 10.352H57.0079ZM57.7284 7.2021C58.2001 6.32612 58.849 5.66693 59.6856 5.20216L58.7143 3.45384C57.5349 4.10907 56.6158 5.04988 55.9675 6.2539L57.7284 7.2021ZM59.6856 5.20216C60.5256 4.7355 61.5141 4.488 62.6799 4.488V2.488C61.2217 2.488 59.8903 2.8005 58.7143 3.45384L59.6856 5.20216ZM62.6799 4.488C63.7959 4.488 64.7551 4.72676 65.5831 5.18081L66.5448 3.42719C65.3887 2.79324 64.092 2.488 62.6799 2.488V4.488ZM65.589 5.18402C66.4254 5.63539 67.0606 6.27058 67.5119 7.10693L69.272 6.15707C68.6353 4.97742 67.7185 4.06061 66.5389 3.42398L65.589 5.18402ZM67.5211 7.12359C67.9853 7.94593 68.2319 8.91617 68.2319 10.064H70.2319C70.2319 8.61983 69.9185 7.30207 69.2628 6.1404L67.5211 7.12359ZM66.7518 9.08548C66.7309 7.96136 66.3095 6.99044 65.4601 6.27509L64.1718 7.80491C64.5383 8.11356 64.7409 8.51864 64.7521 9.12251L66.7518 9.08548ZM65.4716 6.28497C64.6643 5.58387 63.6808 5.248 62.5839 5.248V7.248C63.2471 7.248 63.7516 7.44013 64.1603 7.79503L65.4716 6.28497ZM62.5839 5.248C61.5282 5.248 60.5818 5.58035 59.8076 6.26859L61.1363 7.76341C61.514 7.42764 61.9757 7.248 62.5839 7.248V5.248ZM59.8089 6.26741C59.0361 6.95192 58.6042 7.88319 58.45 8.96258L60.4299 9.24542C60.5317 8.53281 60.7878 8.07208 61.135 7.76459L59.8089 6.26741ZM59.4399 10.104H65.7519V8.104H59.4399V10.104ZM79.5564 6.464V5.464H78.5564V6.464H79.5564ZM79.8684 13.88L79.1613 14.5871L79.1885 14.6143L79.2176 14.6393L79.8684 13.88ZM82.5324 14.168H83.5324V13.168H82.5324V14.168ZM82.5324 17V18H83.5324V17H82.5324ZM76.1724 6.464H77.1724V5.464H76.1724V6.464ZM74.5884 6.464H73.5884V7.464H74.5884V6.464ZM74.5884 3.704V2.704H73.5884V3.704H74.5884ZM76.1724 3.704V4.704H77.1724V3.704H76.1724ZM76.1724 0.415998V-0.584002H75.1724V0.415998H76.1724ZM79.5564 0.415998H80.5564V-0.584002H79.5564V0.415998ZM79.5564 3.704H78.5564V4.704H79.5564V3.704ZM82.5324 3.704H83.5324V2.704H82.5324V3.704ZM82.5324 6.464V7.464H83.5324V6.464H82.5324ZM78.5564 6.464V12.896H80.5564V6.464H78.5564ZM78.5564 12.896C78.5564 13.473 78.6875 14.1133 79.1613 14.5871L80.5755 13.1729C80.6026 13.2 80.5995 13.213 80.5877 13.1758C80.5744 13.1339 80.5564 13.0466 80.5564 12.896H78.5564ZM79.2176 14.6393C79.7154 15.0659 80.3813 15.168 80.9724 15.168V13.168C80.7743 13.168 80.6436 13.1489 80.5649 13.1284C80.4867 13.108 80.4876 13.0937 80.5192 13.1207L79.2176 14.6393ZM80.9724 15.168H82.5324V13.168H80.9724V15.168ZM81.5324 14.168V17H83.5324V14.168H81.5324ZM82.5324 16H80.4204V18H82.5324V16ZM80.4204 16C79.1515 16 78.3848 15.6915 77.9313 15.2508C77.4832 14.8153 77.1724 14.0865 77.1724 12.872H75.1724C75.1724 14.4095 75.5697 15.7446 76.5375 16.6852C77.5001 17.6205 78.8574 18 80.4204 18V16ZM77.1724 12.872V6.464H75.1724V12.872H77.1724ZM76.1724 5.464H74.5884V7.464H76.1724V5.464ZM75.5884 6.464V3.704H73.5884V6.464H75.5884ZM74.5884 4.704H76.1724V2.704H74.5884V4.704ZM77.1724 3.704V0.415998H75.1724V3.704H77.1724ZM76.1724 1.416H79.5564V-0.584002H76.1724V1.416ZM78.5564 0.415998V3.704H80.5564V0.415998H78.5564ZM79.5564 4.704H82.5324V2.704H79.5564V4.704ZM81.5324 3.704V6.464H83.5324V3.704H81.5324ZM82.5324 5.464H79.5564V7.464H82.5324V5.464ZM92.3411 14.168L91.5085 13.6141L90.4748 15.168H92.3411V14.168ZM99.8771 14.168H100.877V13.168H99.8771V14.168ZM99.8771 17V18H100.877V17H99.8771ZM88.4531 17H87.4531V18H88.4531V17ZM88.4531 14.408L87.6189 13.8566L87.4531 14.1074V14.408H88.4531ZM95.9411 3.08L96.7753 3.63143L97.8009 2.08H95.9411V3.08ZM88.4531 3.08H87.4531V4.08H88.4531V3.08ZM88.4531 0.247999V-0.752001H87.4531V0.247999H88.4531ZM99.8771 0.247999H100.877V-0.752001H99.8771V0.247999ZM99.8771 2.84L100.71 3.39388L100.877 3.14224V2.84H99.8771ZM92.3411 15.168H99.8771V13.168H92.3411V15.168ZM98.8771 14.168V17H100.877V14.168H98.8771ZM99.8771 16H88.4531V18H99.8771V16ZM89.4531 17V14.408H87.4531V17H89.4531ZM89.2873 14.9594L96.7753 3.63143L95.1069 2.52857L87.6189 13.8566L89.2873 14.9594ZM95.9411 2.08H88.4531V4.08H95.9411V2.08ZM89.4531 3.08V0.247999H87.4531V3.08H89.4531ZM88.4531 1.248H99.8771V-0.752001H88.4531V1.248ZM98.8771 0.247999V2.84H100.877V0.247999H98.8771ZM99.0445 2.28611L91.5085 13.6141L93.1737 14.7219L100.71 3.39388L99.0445 2.28611Z" fill="black"/>
</svg>
